<?xml version="1.0" encoding="UTF-8"?>
<svg width="700pt" height="700pt" version="1.1" viewBox="0 0 700 700" xmlns="http://www.w3.org/2000/svg">
 <g>
  <path d="m350 507.5c-125.45 0-227.5-102.05-227.5-227.5s102.05-227.5 227.5-227.5 227.5 102.05 227.5 227.5-102.05 227.5-227.5 227.5zm0-420c-106.14 0-192.5 86.355-192.5 192.5s86.355 192.5 192.5 192.5 192.5-86.355 192.5-192.5-86.355-192.5-192.5-192.5z"/>
  <path d="m412.82 290.32c-4.4766 0-8.957-1.7109-12.375-5.1289l-50.449-50.449-50.449 50.449c-6.8359 6.8359-17.91 6.8359-24.746 0-6.8359-6.8359-6.8359-17.91 0-24.746l62.824-62.824c6.8359-6.8359 17.91-6.8359 24.746 0l62.824 62.824c6.8359 6.8359 6.8359 17.91 0 24.746-3.4219 3.418-7.8984 5.1289-12.375 5.1289z"/>
  <path d="m350 367.5c-9.6641 0-17.5-7.8359-17.5-17.5v-140c0-9.6641 7.8359-17.5 17.5-17.5s17.5 7.8359 17.5 17.5v140c0 9.6641-7.8359 17.5-17.5 17.5z"/>
 </g>
</svg>
